<svg xmlns="http://www.w3.org/2000/svg" width="443.043" height="304.778" viewBox="0 0 443.043 304.778">
  <g id="Tribecamp" transform="translate(-301.298 -215.375)">
    <path id="Path_4" data-name="Path 4" d="M679.532,519.968h-10a2.954,2.954,0,0,1-2.592-1.481l-8.331-13.33L573.635,370.379l-8.7-13.885L494.4,244.858a3.123,3.123,0,0,0-5.369,0l-31.288,49.431-8.7,13.885L325.554,505.157l-8.331,13.33a3.19,3.19,0,0,1-2.592,1.481H304.449a3.093,3.093,0,0,1-2.592-4.814l6.295-10,132-210.5,8.7-13.885L488.843,216.9a3.123,3.123,0,0,1,5.369,0L573.45,342.609l8.7,13.885,93.863,148.663,6.295,10A3.3,3.3,0,0,1,679.532,519.968Z" transform="translate(0 0)" fill="#ffc000"/>
    <path id="Path_5" data-name="Path 5" d="M664.423,482.594H657.2a4.268,4.268,0,0,1-3.7-2.036l-8.146-12.774L532.607,289.128a4.333,4.333,0,0,0-7.405,0L506.5,319.12l-8.7,13.885-32.028,51.1-8.7,13.885-43.877,69.981-7.961,12.774a4.268,4.268,0,0,1-3.7,2.036h-7.22a4.365,4.365,0,0,1-3.7-6.665l5.184-8.146,52.393-83.5,8.7-13.885L489.1,319.12l8.7-13.885,27.585-43.877a4.333,4.333,0,0,1,7.405,0L663.127,467.968l5.184,8.146C669.977,478.706,667.756,482.594,664.423,482.594Z" transform="translate(75.463 37.374)" fill="#ffc000"/>
    <path id="Path_6" data-name="Path 6" d="M538.365,483.765h-12.4a10.032,10.032,0,0,1-8.331-4.443l-6.85-10.368-46.1-69.981-8.886-13.515L425.062,338.8l-8.886-13.515L381,271.785l8.516-13.885,35.546,53.874,8.886,13.515,30.362,46.1L473.2,384.9l55.17,83.681Z" transform="translate(67.854 36.204)" fill="#ffc000"/>
    <path id="Path_7" data-name="Path 7" d="M460.728,301.878l-6.109,9.257L367.79,441.285l-2.592,3.888-5.184,7.776a7.223,7.223,0,0,1-6.109,3.147,7.307,7.307,0,0,1-7.405-7.405,7.053,7.053,0,0,1,1.3-4.073l2.222-3.332,95.715-143.479,2.777-4.073a7.438,7.438,0,0,1,12.4,0h0A7.623,7.623,0,0,1,460.728,301.878Z" transform="translate(38.483 63.872)" fill="#ffc000"/>
    <path id="Path_11" data-name="Path 11" d="M537,386.711H459.989a7.394,7.394,0,0,1-6.109-3.332h0a7.384,7.384,0,0,1,6.109-11.478h77.016a7.443,7.443,0,0,1,6.291,3.518h0C546.443,380.231,542.74,386.711,537,386.711Z" transform="translate(-145.172 133.257)" fill="#ffc000"/>
    <path id="Path_10" data-name="Path 10" d="M603.8,386.711H461.989a7.394,7.394,0,0,1-6.109-3.332h0a7.384,7.384,0,0,1,6.109-11.478H603.8a7.45,7.45,0,0,1,6.295,3.518h0C613.244,380.231,609.542,386.711,603.8,386.711Z" transform="translate(130.53 133.257)" fill="#ffc000"/>
  </g>
</svg>
